# xmcd
#
# Track frame offsets: 
#        150
#        14468
#        27520
#        40900
#        55375
#        69217
#        80162
#        93832
#        107484
#        122119
#        135784
#        147969
#        159956
#        172034
#        186799
#        200387
#        212159
#        226411
#        240656
#        254126
#        266778
#        279908
#        293018
#        304436
#        318663
#        332620
#
# Disc length: 4611 seconds
#
# Revision: 0
# Processed by: cddbd v1.5.2PL0 Copyright (c) Steve Scherf et al.
# Submitted via: ExactAudioCopyFreeDBPlugin 1.0
#
DISCID=7e12011a
DTITLE=John Lee Hooker - The Great John Lee Hooker
DYEAR=2016
DGENRE=Blues
TTITLE0=Boogie Child
TTITLE1=T.B.´S Killin´me (No Friend around)
TTITLE2=Hoogie Boogie
TTITLE3=Sally Mae
TTITLE4=Hobo Blues
TTITLE5=Gotta Boogie
TTITLE6=Drifting from door to door
TTITLE7=Lord Taketh my baby away (Decoration Day)
TTITLE8=Woman in my life
TTITLE9=Crawling Kingsnake
TTITLE10=I gotta be comin´back (Boogie chillun 2)
TTITLE11=Howlin´Wolf
TTITLE12=Let your daddy ride
TTITLE13=Playing the races
TTITLE14=Out the door i went (John Lee´s House rent boogie)
TTITLE15=Queen be
TTITLE16=Im in Mood
TTITLE17=Turn over a new leaf
TTITLE18=Just like a woman (never satisfied)
TTITLE19=It´s a crime and shame (Give me your phone number)
TTITLE20=Rock House Boogie
TTITLE21=Down Child
TTITLE22=Jump me one more time
TTITLE23=Can I say Hello (Don´t you remember me)
TTITLE24=Bad Boy
TTITLE25=Please take me back
EXTD=
EXTT0=
EXTT1=
EXTT2=
EXTT3=
EXTT4=
EXTT5=
EXTT6=
EXTT7=
EXTT8=
EXTT9=
EXTT10=
EXTT11=
EXTT12=
EXTT13=
EXTT14=
EXTT15=
EXTT16=
EXTT17=
EXTT18=
EXTT19=
EXTT20=
EXTT21=
EXTT22=
EXTT23=
EXTT24=
EXTT25=
PLAYORDER=
